HIERARCHY
ROOT joint_Root
{
	OFFSET 0.0 0.0 0.0
	CHANNELS 6 Xposition Yposition Zposition Zrotation Xrotation Yrotation 
	JOINT Hips
	{
		OFFSET -17.1583 93.1646 452.98
		CHANNELS 6 Xposition Yposition Zposition Zrotation Xrotation Yrotation 
		JOINT Spine
		{
			OFFSET 15.7357 0.0 0.0
			CHANNELS 6 Xposition Yposition Zposition Zrotation Xrotation Yrotation 
			JOINT Chest
			{
				OFFSET 8.98455 -0.406207 0.0
				CHANNELS 6 Xposition Yposition Zposition Zrotation Xrotation Yrotation 
				JOINT Neck
				{
					OFFSET 16.3773 0.0 0.0
					CHANNELS 6 Xposition Yposition Zposition Zrotation Xrotation Yrotation 
					JOINT Head
					{
						OFFSET 6.45672 0.0 0.0
						CHANNELS 6 Xposition Yposition Zposition Zrotation Xrotation Yrotation 
						End Site
						{
							OFFSET 0.0 0.0 0.0
						}
					}
				}
				JOINT Shoulder_L
				{
					OFFSET 12.9942 -0.242716 4.98039
					CHANNELS 6 Xposition Yposition Zposition Zrotation Xrotation Yrotation 
					JOINT UpperArm_L
					{
						OFFSET 5.34809 0.0 0.0
						CHANNELS 6 Xposition Yposition Zposition Zrotation Xrotation Yrotation 
						JOINT LowerArm_L
						{
							OFFSET 24.3286 1.87007e-05 0.0
							CHANNELS 6 Xposition Yposition Zposition Zrotation Xrotation Yrotation 
							JOINT Hand_L
							{
								OFFSET 22.2916 0.0 0.0
								CHANNELS 6 Xposition Yposition Zposition Zrotation Xrotation Yrotation 
								End Site
								{
									OFFSET 0.0 0.0 0.0
								}
							}
						}
					}
				}
				JOINT Shoulder_R
				{
					OFFSET 12.9945 -0.242716 -4.98039
					CHANNELS 6 Xposition Yposition Zposition Zrotation Xrotation Yrotation 
					JOINT UpperArm_R
					{
						OFFSET -5.34813 0.0 0.0
						CHANNELS 6 Xposition Yposition Zposition Zrotation Xrotation Yrotation 
						JOINT LowerArm_R
						{
							OFFSET -24.3289 0.000322201 0.0
							CHANNELS 6 Xposition Yposition Zposition Zrotation Xrotation Yrotation 
							JOINT Hand_R
							{
								OFFSET -22.2915 -0.000108084 0.0
								CHANNELS 6 Xposition Yposition Zposition Zrotation Xrotation Yrotation 
								End Site
								{
									OFFSET 0.0 0.0 0.0
								}
							}
						}
					}
				}
			}
		}
		JOINT UpperLeg_L
		{
			OFFSET -2.19248 -6.46944 0.0
			CHANNELS 6 Xposition Yposition Zposition Zrotation Xrotation Yrotation 
			JOINT LowerLeg_L
			{
				OFFSET 39.0811 0.0 -1.23785e-05
				CHANNELS 6 Xposition Yposition Zposition Zrotation Xrotation Yrotation 
				JOINT Foot_L
				{
					OFFSET 40.9854 0.0 -1.26872e-05
					CHANNELS 6 Xposition Yposition Zposition Zrotation Xrotation Yrotation 
					JOINT Toes_L
					{
						OFFSET 11.7543 0.0 0.0
						CHANNELS 6 Xposition Yposition Zposition Zrotation Xrotation Yrotation 
						End Site
						{
							OFFSET 0.0 0.0 0.0
						}
					}
				}
			}
		}
		JOINT UpperLeg_R
		{
			OFFSET -2.19251 6.46944 0.0
			CHANNELS 6 Xposition Yposition Zposition Zrotation Xrotation Yrotation 
			JOINT LowerLeg_R
			{
				OFFSET -39.0811 -0.00228153 -0.0401928
				CHANNELS 6 Xposition Yposition Zposition Zrotation Xrotation Yrotation 
				JOINT Foot_R
				{
					OFFSET -40.9854 0.0 0.0
					CHANNELS 6 Xposition Yposition Zposition Zrotation Xrotation Yrotation 
					JOINT Toes_R
					{
						OFFSET -11.7543 0.0 0.0
						CHANNELS 6 Xposition Yposition Zposition Zrotation Xrotation Yrotation 
						End Site
						{
							OFFSET 0.0 0.0 0.0
						}
					}
				}
			}
		}
	}
}
MOTION
Frames:	6
Frame Time:	0.0333333
0.000000 0.000000 0.000000 0.000000 0.000000 -0.000000 -1.867680 93.739100 1.926740 87.960900 2.803670 -8.026490 15.735700 0.000005 -0.000001 -45.981200 89.065200 47.245600 8.984550 -0.406207 -0.000000 -9.094540 -1.480270 2.418040 16.377300 -0.000001 -0.000001 -10.247500 0.135603 1.326510 6.456720 -0.000001 -0.000000 -15.144200 0.788997 1.033990 12.994200 -0.242716 4.980390 -88.234200 -3.285810 -61.725600 5.348090 -0.000007 -0.000001 -82.016800 -65.775100 -125.683000 24.328600 0.000019 0.000005 0.000046 -3.959470 -0.000000 22.291600 -0.000001 0.000005 49.958500 4.420180 17.900300 12.994500 -0.242716 -4.980390 93.849600 -6.399710 -58.881100 -5.348130 -0.000001 -0.000004 -75.556300 -66.750600 -124.754000 -24.328900 0.000322 -0.000009 -0.001063 -30.023200 -0.000173 -22.291500 -0.000108 -0.000004 42.393400 5.493370 -6.269490 -2.192480 -6.469440 -0.000000 -173.373000 -13.199300 -4.272710 39.081100 -0.000007 -0.000012 -0.018908 0.205420 5.258720 40.985400 -0.000006 -0.000013 -8.230210 18.186800 -62.223700 11.754300 -0.000000 0.000003 -0.004125 0.220366 -7.633290 -2.192510 6.469440 -0.000001 178.366000 13.444700 179.260000 -39.081100 -0.002282 -0.040193 0.003806 -0.086638 0.298217 -40.985400 0.000008 0.000006 -10.205500 11.894700 -60.112400 -11.754300 -0.000006 -0.000006 -0.012507 0.289174 -4.819510
0.000000 0.000000 0.000000 0.000000 0.000000 -0.000000 -1.913700 93.739200 1.945020 87.924500 2.901300 -8.043800 15.735700 0.000005 -0.000001 -46.450100 89.060500 47.716100 8.984550 -0.406207 -0.000000 -9.112050 -1.476240 2.421470 16.377300 -0.000001 -0.000001 -10.123500 0.118086 1.349130 6.456720 -0.000001 -0.000000 -15.130000 0.828837 1.046020 12.994200 -0.242716 4.980390 -88.220600 -3.319980 -61.789500 5.348090 -0.000007 -0.000001 -81.624100 -65.786600 -125.121000 24.328600 0.000019 0.000005 0.000046 -3.867280 -0.000000 22.291600 -0.000001 0.000005 49.748700 4.421880 17.873000 12.994500 -0.242716 -4.980390 93.857700 -6.415640 -58.890000 -5.348130 -0.000001 -0.000004 -75.149200 -66.669800 -124.272000 -24.328900 0.000322 -0.000009 -0.001063 -30.016500 -0.000173 -22.291500 -0.000108 -0.000004 42.326800 5.492600 -6.238230 -2.192480 -6.469440 -0.000000 -173.326000 -13.272200 -4.322380 39.081100 -0.000007 -0.000012 -0.019082 0.205846 5.295840 40.985400 -0.000006 -0.000013 -8.165850 18.263600 -62.258200 11.754300 -0.000000 0.000003 -0.004140 0.220519 -7.627040 -2.192510 6.469440 -0.000001 178.457000 13.585000 179.246000 -39.081100 -0.002282 -0.040193 0.003822 -0.085947 0.311520 -40.985400 0.000008 0.000006 -10.118600 11.937500 -60.088200 -11.754300 -0.000006 -0.000006 -0.012604 0.289831 -4.792570
0.000000 0.000000 0.000000 0.000000 0.000000 -0.000000 -1.951820 93.738300 1.972140 87.943900 3.039200 -8.005190 15.735700 0.000005 -0.000001 -45.384900 89.063700 46.623600 8.984550 -0.406207 -0.000000 -9.083350 -1.492360 2.365710 16.377300 -0.000001 -0.000001 -10.057200 0.089243 1.365380 6.456720 -0.000001 -0.000000 -15.053900 0.795173 1.144200 12.994200 -0.242716 4.980390 -88.219500 -3.332910 -61.866100 5.348090 -0.000007 -0.000001 -81.526300 -65.665500 -124.955000 24.328600 0.000019 0.000005 0.000046 -3.910580 -0.000000 22.291600 -0.000001 0.000005 49.849800 4.414410 17.992800 12.994500 -0.242716 -4.980390 93.865600 -6.425860 -58.878700 -5.348130 -0.000001 -0.000004 -74.508500 -66.615600 -123.476000 -24.328900 0.000322 -0.000009 -0.001064 -30.176900 -0.000174 -22.291500 -0.000108 -0.000004 42.220500 5.491830 -6.208090 -2.192480 -6.469440 -0.000000 -173.250000 -13.079600 -4.187350 39.081100 -0.000007 -0.000012 -0.018383 0.205660 5.107680 40.985400 -0.000006 -0.000013 -8.558470 18.264500 -62.027200 11.754300 -0.000000 0.000003 -0.004068 0.219773 -7.657410 -2.192510 6.469440 -0.000001 178.461000 13.597700 179.338000 -39.081100 -0.002282 -0.040193 0.003779 -0.086609 0.280453 -40.985400 0.000008 0.000006 -10.187900 11.810200 -60.085400 -11.754300 -0.000006 -0.000006 -0.012394 0.288401 -4.851180
0.000000 0.000000 0.000000 0.000000 0.000000 -0.000000 -1.994170 93.745300 1.989700 87.931900 3.113330 -8.038120 15.735700 0.000005 -0.000001 -45.471900 89.060000 46.705200 8.984550 -0.406207 -0.000000 -9.090750 -1.494840 2.354520 16.377300 -0.000001 -0.000001 -9.991440 0.066079 1.357150 6.456720 -0.000001 -0.000000 -15.000100 0.768604 1.159150 12.994200 -0.242716 4.980390 -88.209200 -3.357610 -61.905000 5.348090 -0.000007 -0.000001 -81.250800 -65.568300 -124.541000 24.328600 0.000019 0.000005 0.000046 -4.064760 -0.000000 22.291600 -0.000001 0.000005 49.885800 4.415090 17.981900 12.994500 -0.242716 -4.980390 93.842700 -6.386410 -58.874300 -5.348130 -0.000001 -0.000004 -74.294300 -66.403100 -123.174000 -24.328900 0.000322 -0.000009 -0.001063 -30.055100 -0.000173 -22.291500 -0.000108 -0.000004 42.218100 5.493070 -6.257100 -2.192480 -6.469440 -0.000000 -173.218000 -13.078200 -4.099510 39.081100 -0.000007 -0.000012 -0.016886 0.199769 4.831460 40.985400 -0.000006 -0.000013 -8.580170 18.261600 -61.881100 11.754300 -0.000000 0.000003 -0.004305 0.222208 -7.558260 -2.192510 6.469440 -0.000001 178.512000 13.349700 179.353000 -39.081100 -0.002282 -0.040193 0.003664 -0.086070 0.205630 -40.985400 0.000008 0.000006 -10.147400 11.520400 -60.096700 -11.754300 -0.000006 -0.000006 -0.012589 0.289727 -4.796840
0.000000 0.000000 0.000000 0.000000 0.000000 -0.000000 -2.030790 93.756000 1.991200 87.909000 3.197550 -8.067510 15.735700 0.000005 -0.000001 -44.159500 89.036300 45.398600 8.984550 -0.406207 -0.000000 -9.092550 -1.559800 2.360990 16.377300 -0.000001 -0.000001 -9.936260 0.097979 1.286600 6.456720 -0.000001 -0.000000 -14.930700 0.774418 1.245350 12.994200 -0.242716 4.980390 -88.211700 -3.350750 -61.890300 5.348090 -0.000007 -0.000001 -81.120100 -65.401400 -124.338000 24.328600 0.000019 0.000005 0.000046 -4.018650 -0.000000 22.291600 -0.000001 0.000005 49.679100 4.418180 17.932200 12.994500 -0.242716 -4.980390 93.868700 -6.435670 -58.896500 -5.348130 -0.000001 -0.000004 -74.493900 -66.041700 -123.109000 -24.328900 0.000322 -0.000009 -0.001062 -29.896700 -0.000172 -22.291500 -0.000108 -0.000004 42.317700 5.487690 -6.045630 -2.192480 -6.469440 -0.000000 -173.142000 -13.012200 -4.022750 39.081100 -0.000007 -0.000012 -0.015766 0.197397 4.566190 40.985400 -0.000006 -0.000013 -8.941120 18.303100 -61.598100 11.754300 -0.000000 0.000003 -0.004251 0.221653 -7.580870 -2.192510 6.469440 -0.000001 178.585000 13.447100 179.318000 -39.081100 -0.002282 -0.040193 0.003651 -0.085670 0.197744 -40.985400 0.000008 0.000006 -10.092100 11.498400 -60.018300 -11.754300 -0.000006 -0.000006 -0.012282 0.287634 -4.882600
0.000000 0.000000 0.000000 0.000000 0.000000 -0.000000 -2.055510 93.758900 1.984710 87.890000 3.198880 -8.051190 15.735700 0.000005 -0.000001 -43.004600 89.060400 44.245500 8.984550 -0.406207 -0.000000 -9.031550 -1.551030 2.366080 16.377300 -0.000001 -0.000001 -9.905700 0.082725 1.261030 6.456720 -0.000001 -0.000000 -14.863400 0.737001 1.157700 12.994200 -0.242716 4.980390 -88.220000 -3.336170 -61.897300 5.348090 -0.000007 -0.000001 -81.031300 -65.247500 -124.188000 24.328600 0.000019 0.000005 0.000046 -3.914900 -0.000000 22.291600 -0.000001 0.000005 49.882900 4.412760 18.019300 12.994500 -0.242716 -4.980390 93.878400 -6.450610 -58.891300 -5.348130 -0.000001 -0.000004 -74.127000 -65.866700 -122.682000 -24.328900 0.000322 -0.000009 -0.001062 -29.876300 -0.000172 -22.291500 -0.000108 -0.000004 42.052600 5.487590 -6.041650 -2.192480 -6.469440 -0.000000 -173.095000 -13.057200 -3.963590 39.081100 -0.000007 -0.000012 -0.015147 0.194350 4.456180 40.985400 -0.000006 -0.000013 -9.020470 18.347100 -61.476100 11.754300 -0.000000 0.000003 -0.004200 0.221139 -7.601780 -2.192510 6.469440 -0.000001 178.613000 13.480200 179.336000 -39.081100 -0.002282 -0.040193 0.003646 -0.086167 0.193362 -40.985400 0.000008 0.000006 -10.128900 11.577500 -59.972900 -11.754300 -0.000006 -0.000006 -0.012422 0.288592 -4.843320
